0.11m3min_grf.mot
version=1
nRows=30
nColumns 19
inDegrees=yes
endheader
time	1_ground_force_vx	1_ground_force_vy	1_ground_force_vz	1_ground_force_px	1_ground_force_py	1_ground_force_pz	1_ground_torque_x	1_ground_torque_y	1_ground_torque_z	2_ground_force_vx	2_ground_force_vy	2_ground_force_vz	2_ground_force_px	2_ground_force_py	2_ground_force_pz	2_ground_torque_x	2_ground_torque_y	2_ground_torque_z
            2.502500	           -5.588252	          537.330056	          -30.194992	           -0.242963	            0.006133	           -0.384818	           -0.006807	            0.654485	           -0.036778	            8.268580	          609.040739	           46.938519	           -0.277559	            0.005497	           -0.701963	            0.003962	            0.291827	            0.022491
            2.503000	           -3.902572	          546.899633	          -33.689136	           -0.243306	            0.006130	           -0.383961	           -0.008838	            1.238586	           -0.076297	            9.917992	          619.537585	           48.570809	           -0.277620	            0.005498	           -0.702440	            0.001370	            0.085568	            0.006708
            2.503500	           -3.552888	          554.317759	          -39.986471	           -0.242958	            0.006131	           -0.384178	           -0.004516	            0.704622	           -0.050829	           12.650920	          628.202316	           48.647443	           -0.277900	            0.005496	           -0.701932	           -0.007559	           -0.375371	           -0.029068
            2.504000	           -2.743624	          563.536013	          -45.681091	           -0.243038	            0.006129	           -0.383894	            0.001207	           -0.247990	            0.020102	           14.486121	          638.891739	           48.121619	           -0.278151	            0.005495	           -0.702173	           -0.012621	           -0.556652	           -0.041927
            2.504500	           -1.924467	          570.935156	          -47.531536	           -0.243409	            0.006129	           -0.383809	            0.003657	           -1.084917	            0.090322	           15.526554	          649.207038	           48.392596	           -0.278014	            0.005496	           -0.702059	           -0.010979	           -0.459058	           -0.034219
            2.505000	           -0.177734	          578.856566	          -45.025629	           -0.243973	            0.006129	           -0.383812	            0.000323	           -1.052735	            0.081886	           15.350771	          659.145261	           49.929836	           -0.278215	            0.005495	           -0.702236	           -0.003426	           -0.147105	           -0.011143
            2.505500	            2.398593	          588.752769	          -40.587320	           -0.243861	            0.006129	           -0.383812	           -0.000552	           -0.135480	            0.009340	           14.892598	          669.629139	           53.064723	           -0.278315	            0.005497	           -0.702657	            0.003252	            0.146215	            0.011587
            2.506000	            5.843355	          595.950495	          -37.400881	           -0.243833	            0.006130	           -0.384151	            0.009859	            1.005545	           -0.063106	           14.579063	          679.007843	           56.430248	           -0.278365	            0.005497	           -0.702719	            0.006890	            0.320900	            0.026669
            2.506500	            8.040531	          604.606621	          -38.057075	           -0.244381	            0.006130	           -0.384105	            0.019138	            1.439077	           -0.090583	           15.061316	          688.394657	           58.293734	           -0.278609	            0.005495	           -0.702624	            0.006259	            0.286090	            0.024226
            2.507000	            9.173561	          613.099156	          -42.655041	           -0.244459	            0.006129	           -0.383813	            0.015254	            1.019457	           -0.070926	           16.241112	          699.077695	           58.894463	           -0.278551	            0.005496	           -0.702779	            0.001818	            0.078263	            0.006593
            2.507500	            8.880481	          621.419892	          -49.267906	           -0.244394	            0.006129	           -0.383815	           -0.000391	           -0.027375	            0.002170	           17.417010	          710.686062	           58.184490	           -0.278676	            0.005496	           -0.702781	           -0.002695	           -0.109972	           -0.009003
            2.508000	            7.858549	          629.912601	          -53.998088	           -0.244403	            0.006129	           -0.383883	           -0.010638	           -0.852693	            0.073096	           18.412256	          720.451509	           57.702667	           -0.278801	            0.005495	           -0.702653	           -0.003958	           -0.154874	           -0.012404
            2.508500	            7.258405	          640.371766	          -54.868896	           -0.244739	            0.006124	           -0.382831	           -0.008088	           -0.713571	            0.061141	           18.187925	          730.760856	           58.396535	           -0.278939	            0.005494	           -0.702488	            0.001129	            0.045355	            0.003624
            2.509000	            7.767916	          647.210813	          -52.226991	           -0.244849	            0.006127	           -0.383408	            0.001524	            0.126981	           -0.010247	           17.307752	          741.246057	           60.733823	           -0.278992	            0.005494	           -0.702739	            0.007138	            0.305710	            0.025048
            2.509500	            9.838510	          655.127173	          -48.529628	           -0.244727	            0.006129	           -0.383943	            0.015653	            1.042333	           -0.077213	           15.911190	          752.095336	           63.729638	           -0.278848	            0.005495	           -0.702849	            0.012134	            0.573560	            0.048601
            2.510000	           12.040498	          664.856182	          -47.163524	           -0.245196	            0.006129	           -0.383816	            0.026650	            1.471580	           -0.104391	           15.124757	          762.580540	           66.160743	           -0.278878	            0.005496	           -0.703073	            0.011713	            0.590572	            0.051237
            2.510500	           13.455348	          674.959002	          -48.912150	           -0.245644	            0.006126	           -0.383234	            0.020258	            1.016218	           -0.073642	           14.670348	          771.782569	           67.273129	           -0.279049	            0.005495	           -0.702954	            0.010169	            0.534951	            0.046630
            2.511000	           13.166106	          683.453350	          -53.965140	           -0.245551	            0.006127	           -0.383500	            0.002789	            0.144790	           -0.011433	           14.346795	          783.566377	           67.503013	           -0.278926	            0.005496	           -0.703080	            0.006339	            0.346192	            0.029824
            2.511500	           11.912634	          691.589550	          -59.659278	           -0.245526	            0.006128	           -0.383717	           -0.006670	           -0.387230	            0.033404	           14.359689	          792.958651	           67.395711	           -0.278978	            0.005495	           -0.702829	            0.004084	            0.225549	            0.019170
            2.512000	            9.519007	          699.715428	          -62.966064	           -0.245654	            0.006126	           -0.383253	           -0.001413	           -0.103863	            0.009346	           13.430779	          803.816483	           68.467274	           -0.279082	            0.005495	           -0.702913	            0.005133	            0.307205	            0.026167
            2.512500	            7.179499	          709.268694	          -62.827575	           -0.245548	            0.006124	           -0.382781	            0.005155	            0.509315	           -0.045116	           11.944092	          813.563927	           70.520632	           -0.279032	            0.005495	           -0.702791	            0.008152	            0.555283	            0.048133
            2.513000	            6.267354	          717.730160	          -60.266898	           -0.245550	            0.006125	           -0.383078	            0.009391	            1.075439	           -0.090303	           10.032823	          824.227310	           73.469081	           -0.279197	            0.005495	           -0.703027	            0.008443	            0.693627	            0.061828
            2.513500	            6.317517	          728.355000	          -57.699329	           -0.245736	            0.006126	           -0.383148	            0.009455	            1.090069	           -0.086354	            8.078069	          833.969547	           76.508120	           -0.279097	            0.005495	           -0.702978	            0.008307	            0.857590	            0.078675
            2.514000	            7.600761	          737.186134	          -57.160228	           -0.246153	            0.006126	           -0.383318	            0.006661	            0.646007	           -0.050090	            6.301724	          846.109196	           78.757837	           -0.278979	            0.005497	           -0.703392	            0.006133	            0.823438	            0.076648
            2.514500	            8.187770	          746.933042	          -60.008885	           -0.246445	            0.006126	           -0.383226	            0.000512	            0.046693	           -0.003751	            5.043578	          857.333912	           79.924710	           -0.278824	            0.005497	           -0.703348	            0.004591	            0.780329	            0.072746
            2.515000	            7.026614	          757.230679	          -65.281276	           -0.246267	            0.006125	           -0.383077	           -0.000323	           -0.034755	            0.002996	            3.926339	          868.377323	           80.386952	           -0.279002	            0.005497	           -0.703321	            0.003071	            0.679187	            0.062873
            2.515500	            3.849816	          766.444352	          -70.048871	           -0.246183	            0.006125	           -0.383030	            0.002065	            0.411113	           -0.037574	            2.665288	          880.340611	           80.993316	           -0.278928	            0.005497	           -0.703365	            0.002218	            0.732535	            0.067395
            2.516000	           -0.421018	          776.007348	          -72.290111	           -0.246257	            0.006123	           -0.382574	           -0.000538	            0.991451	           -0.092360	            0.656941	          891.746199	           82.301942	           -0.278880	            0.005498	           -0.703538	            0.000695	            0.943585	            0.087086
            2.516500	           -4.227292	          786.280804	          -72.007333	           -0.246302	            0.006123	           -0.382501	           -0.006154	            1.144683	           -0.104830	           -1.307988	          904.252281	           84.881557	           -0.278794	            0.005499	           -0.703763	           -0.001594	            1.101663	            0.103412
            2.517000	           -5.875675	          795.467712	          -70.496427	           -0.246422	            0.006125	           -0.382979	           -0.006327	            0.856594	           -0.075914	           -3.501665	          915.282885	           87.878375	           -0.278763	            0.005500	           -0.703918	           -0.004733	            1.237024	            0.118770
